<svg xmlns="http://www.w3.org/2000/svg" width="12.269" height="7.668" viewBox="0 0 12.269 7.668">
    <path id="Icon_metro-eye" data-name="Icon metro-eye" d="M8.705,7.712a6.871,6.871,0,0,0-6.134,3.834,6.824,6.824,0,0,0,12.269,0A6.871,6.871,0,0,0,8.705,7.712ZM11.73,9.745a5.834,5.834,0,0,1,1.79,1.8,5.834,5.834,0,0,1-1.79,1.8,5.622,5.622,0,0,1-6.049,0,5.834,5.834,0,0,1-1.79-1.8,5.833,5.833,0,0,1,1.79-1.8c.047-.03.094-.059.142-.087a3.067,3.067,0,1,0,5.765,0l.142.087ZM8.705,10.4a1.15,1.15,0,1,1-1.15-1.15A1.15,1.15,0,0,1,8.705,10.4Z" transform="translate(-2.571 -7.712)" fill="#2274A5" />
</svg>
  