<svg xmlns="http://www.w3.org/2000/svg" width="174.879" height="33.212" viewBox="0 0 174.879 33.212">
    <g id="Grupo_4" data-name="Grupo 4" transform="translate(-51.368 -382.504)">
        <path id="Caminho_1" data-name="Caminho 1" d="M-46.112-8.936c4.022,0,5.973-2.011,5.973-4.364,0-5.168-8.185-3.379-8.185-5.973,0-.885.744-1.609,2.675-1.609a7.951,7.951,0,0,1,3.9,1.106l1.006-2.474A9.443,9.443,0,0,0-45.629-23.5c-4,0-5.933,1.991-5.933,4.384,0,5.229,8.185,3.419,8.185,6.053,0,.865-.784,1.508-2.715,1.508a8.28,8.28,0,0,1-4.646-1.468l-1.106,2.453A10.034,10.034,0,0,0-46.112-8.936Zm16.47-2.856V-15.05h6.536v-2.534h-6.536V-20.64h7.4v-2.614H-32.879V-9.177h10.9v-2.614ZM-7.66-8.936A7.233,7.233,0,0,0-1.848-11.45L-3.94-13.38a4.486,4.486,0,0,1-3.539,1.669,4.319,4.319,0,0,1-4.5-4.5,4.319,4.319,0,0,1,4.5-4.5A4.529,4.529,0,0,1-3.94-19.072L-1.848-21A7.267,7.267,0,0,0-7.64-23.5c-4.384,0-7.642,3.037-7.642,7.28S-12.024-8.936-7.66-8.936Zm25.5-.241L14.682-13.7a4.577,4.577,0,0,0,2.9-4.444c0-3.157-2.353-5.108-6.114-5.108H5.371V-9.177H8.629V-13.1h3l2.715,3.922Zm-3.56-8.969c0,1.528-1.006,2.453-3,2.453H8.629V-20.6h2.655C13.275-20.6,14.28-19.7,14.28-18.147Zm14.138,6.355V-15.05h6.536v-2.534H28.418V-20.64h7.4v-2.614H25.18V-9.177h10.9v-2.614Zm18.2,2.614h3.258V-20.6h4.5v-2.655H42.113V-20.6h4.5Z" transform="translate(158.539 406)" fill="#e9f1f7" />
        <path id="Caminho_2" data-name="Caminho 2" d="M-142.632-6.086h5.81v-.589h-5.157v-8.37h-.653Zm12.823-3.366A3.163,3.163,0,0,0-133-12.818a3.194,3.194,0,0,0-3.2,3.391,3.279,3.279,0,0,0,3.443,3.391,3.2,3.2,0,0,0,2.521-1.088l-.371-.422a2.694,2.694,0,0,1-2.137.934,2.691,2.691,0,0,1-2.828-2.662h5.746C-129.822-9.337-129.809-9.4-129.809-9.452Zm-3.187-2.8a2.525,2.525,0,0,1,2.56,2.483h-5.119A2.525,2.525,0,0,1-133-12.255Zm7.231-.563a4.075,4.075,0,0,0-2.675.947l.32.461a3.467,3.467,0,0,1,2.3-.845,1.739,1.739,0,0,1,1.984,1.907v.537h-2.291c-1.856,0-2.5.857-2.5,1.868,0,1.139.909,1.907,2.406,1.907a2.566,2.566,0,0,0,2.406-1.241v1.19h.614v-4.236A2.272,2.272,0,0,0-125.765-12.818Zm-.358,6.258c-1.177,0-1.856-.537-1.856-1.408,0-.768.486-1.344,1.868-1.344h2.278v1.254A2.29,2.29,0,0,1-126.123-6.56Zm10.148-6.207-2.687,5.976-2.662-5.976H-122l3.007,6.68h.653l3.02-6.68Zm7.512,3.315a3.163,3.163,0,0,0-3.187-3.366,3.194,3.194,0,0,0-3.2,3.391,3.279,3.279,0,0,0,3.443,3.391,3.2,3.2,0,0,0,2.521-1.088l-.371-.422a2.694,2.694,0,0,1-2.137.934,2.691,2.691,0,0,1-2.828-2.662h5.746C-108.475-9.337-108.462-9.4-108.462-9.452Zm-3.187-2.8a2.525,2.525,0,0,1,2.56,2.483h-5.119A2.525,2.525,0,0,1-111.649-12.255Zm10.712-.563a4.075,4.075,0,0,0-2.675.947l.32.461a3.467,3.467,0,0,1,2.3-.845,1.739,1.739,0,0,1,1.984,1.907v.537H-101.3c-1.856,0-2.5.857-2.5,1.868,0,1.139.909,1.907,2.406,1.907a2.566,2.566,0,0,0,2.406-1.241v1.19h.614v-4.236A2.272,2.272,0,0,0-100.938-12.818ZM-101.3-6.56c-1.177,0-1.856-.537-1.856-1.408,0-.768.486-1.344,1.868-1.344h2.278v1.254A2.29,2.29,0,0,1-101.3-6.56Zm10.545.525c1.7,0,2.636-.742,2.636-1.83,0-2.547-4.428-1.126-4.428-3.135,0-.717.576-1.254,1.881-1.254a3.442,3.442,0,0,1,2.009.6l.294-.512a4.1,4.1,0,0,0-2.291-.653c-1.689,0-2.534.819-2.534,1.83,0,2.624,4.428,1.19,4.428,3.135,0,.755-.563,1.254-1.971,1.254A3.887,3.887,0,0,1-93.131-7.4l-.294.512A4.192,4.192,0,0,0-90.751-6.035Zm10.084-3.417a3.163,3.163,0,0,0-3.187-3.366,3.194,3.194,0,0,0-3.2,3.391A3.279,3.279,0,0,0-83.61-6.035a3.2,3.2,0,0,0,2.521-1.088l-.371-.422a2.694,2.694,0,0,1-2.137.934,2.691,2.691,0,0,1-2.828-2.662h5.746C-80.679-9.337-80.666-9.4-80.666-9.452Zm-3.187-2.8a2.525,2.525,0,0,1,2.56,2.483h-5.119A2.525,2.525,0,0,1-83.853-12.255Zm7.819,6.22A2.962,2.962,0,0,0-73.5-7.264l-.474-.346a2.438,2.438,0,0,1-2.06,1,2.652,2.652,0,0,1-2.726-2.815,2.652,2.652,0,0,1,2.726-2.815,2.438,2.438,0,0,1,2.06,1l.474-.346a2.931,2.931,0,0,0-2.534-1.229,3.256,3.256,0,0,0-3.379,3.391A3.263,3.263,0,0,0-76.033-6.035Zm5.068-5.273v-1.459h-.614v6.68h.64V-9.567c0-1.651.883-2.636,2.368-2.636.051,0,.1.013.154.013v-.627A2.537,2.537,0,0,0-70.966-11.308Zm9.905,1.856a3.163,3.163,0,0,0-3.187-3.366,3.194,3.194,0,0,0-3.2,3.391A3.279,3.279,0,0,0-64-6.035a3.2,3.2,0,0,0,2.521-1.088l-.371-.422a2.694,2.694,0,0,1-2.137.934,2.691,2.691,0,0,1-2.828-2.662h5.746C-61.073-9.337-61.06-9.4-61.06-9.452Zm-3.187-2.8a2.525,2.525,0,0,1,2.56,2.483h-5.119A2.525,2.525,0,0,1-64.247-12.255Zm8.216,5.3a1.535,1.535,0,0,1-1.037.371c-.819,0-1.241-.474-1.241-1.331v-4.3h2.124v-.55h-2.124v-1.459h-.64v1.459h-1.229v.55h1.229v4.364a1.657,1.657,0,0,0,1.817,1.817,2.027,2.027,0,0,0,1.369-.474Zm2.1-.166a.525.525,0,0,0-.537.537.523.523,0,0,0,.422.525l-.422,1.8h.461l.5-1.74a1.965,1.965,0,0,0,.115-.589A.532.532,0,0,0-53.932-7.123Zm6.54-4.185v-1.459h-.614v6.68h.64V-9.567c0-1.651.883-2.636,2.368-2.636.051,0,.1.013.154.013v-.627A2.537,2.537,0,0,0-47.392-11.308Zm9.905,1.856a3.163,3.163,0,0,0-3.187-3.366,3.194,3.194,0,0,0-3.2,3.391,3.279,3.279,0,0,0,3.443,3.391,3.2,3.2,0,0,0,2.521-1.088l-.371-.422a2.694,2.694,0,0,1-2.137.934,2.691,2.691,0,0,1-2.828-2.662H-37.5C-37.5-9.337-37.487-9.4-37.487-9.452Zm-3.187-2.8a2.525,2.525,0,0,1,2.56,2.483h-5.119A2.525,2.525,0,0,1-40.674-12.255Zm7.231-.563a4.075,4.075,0,0,0-2.675.947l.32.461a3.467,3.467,0,0,1,2.3-.845,1.739,1.739,0,0,1,1.984,1.907v.537H-33.8c-1.856,0-2.5.857-2.5,1.868,0,1.139.909,1.907,2.406,1.907a2.566,2.566,0,0,0,2.406-1.241v1.19h.614v-4.236A2.272,2.272,0,0,0-33.443-12.818ZM-33.8-6.56c-1.177,0-1.856-.537-1.856-1.408,0-.768.486-1.344,1.868-1.344h2.278v1.254A2.29,2.29,0,0,1-33.8-6.56Zm10.878-9.022v4.364a3,3,0,0,0-2.726-1.6,3.231,3.231,0,0,0-3.3,3.391,3.238,3.238,0,0,0,3.3,3.391A2.963,2.963,0,0,0-22.911-7.66v1.574h.627v-9.5Zm-2.687,8.971A2.65,2.65,0,0,1-28.3-9.426a2.65,2.65,0,0,1,2.687-2.815,2.65,2.65,0,0,1,2.687,2.815A2.65,2.65,0,0,1-25.611-6.611Zm11.569-6.207a4.075,4.075,0,0,0-2.675.947l.32.461a3.467,3.467,0,0,1,2.3-.845,1.739,1.739,0,0,1,1.984,1.907v.537H-14.4c-1.856,0-2.5.857-2.5,1.868,0,1.139.909,1.907,2.406,1.907a2.566,2.566,0,0,0,2.406-1.241v1.19h.614v-4.236A2.272,2.272,0,0,0-14.042-12.818ZM-14.4-6.56c-1.177,0-1.856-.537-1.856-1.408,0-.768.486-1.344,1.868-1.344h2.278v1.254A2.29,2.29,0,0,1-14.4-6.56Zm8.83-6.258a2.757,2.757,0,0,0-2.649,1.5v-1.446h-.614v6.68h.64V-9.644a2.383,2.383,0,0,1,2.534-2.6A2.023,2.023,0,0,1-3.5-9.938v3.852h.64v-3.9A2.536,2.536,0,0,0-5.57-12.818ZM2.4-6.035a3.254,3.254,0,0,0,3.34-3.391A3.254,3.254,0,0,0,2.4-12.818,3.254,3.254,0,0,0-.937-9.426,3.254,3.254,0,0,0,2.4-6.035Zm0-.576A2.65,2.65,0,0,1-.285-9.426,2.65,2.65,0,0,1,2.4-12.242,2.65,2.65,0,0,1,5.09-9.426,2.65,2.65,0,0,1,2.4-6.611Zm8.37-.346a1.535,1.535,0,0,1-1.037.371c-.819,0-1.241-.474-1.241-1.331v-4.3h2.124v-.55H8.494v-1.459h-.64v1.459H6.626v.55H7.855v4.364A1.657,1.657,0,0,0,9.672-6.035a2.027,2.027,0,0,0,1.369-.474Zm5.311-5.861a2.763,2.763,0,0,0-2.624,1.446v-4.21h-.64v9.5h.64V-9.644a2.383,2.383,0,0,1,2.534-2.6,2.023,2.023,0,0,1,2.163,2.3v3.852h.64v-3.9A2.536,2.536,0,0,0,16.083-12.818ZM27.1-9.452a3.163,3.163,0,0,0-3.187-3.366,3.194,3.194,0,0,0-3.2,3.391,3.279,3.279,0,0,0,3.443,3.391A3.2,3.2,0,0,0,26.68-7.123l-.371-.422a2.694,2.694,0,0,1-2.137.934,2.691,2.691,0,0,1-2.828-2.662h5.746C27.089-9.337,27.1-9.4,27.1-9.452Zm-3.187-2.8a2.525,2.525,0,0,1,2.56,2.483H21.356A2.525,2.525,0,0,1,23.916-12.255Zm5.785.947v-1.459h-.614v6.68h.64V-9.567c0-1.651.883-2.636,2.368-2.636.051,0,.1.013.154.013v-.627A2.537,2.537,0,0,0,29.7-11.308Z" transform="translate(194 419.972)" fill="#e9f1f7" opacity="0.301" />
        <path id="Caminho_3" data-name="Caminho 3" d="M-103.989-9.023l-.04-14.077H-106.7l-5.189,8.748-5.269-8.748h-2.695V-9.023h3.057v-8.265l4.123,6.777h1.468l4.143-6.958.02,8.446ZM-83.4-23.1h-3.2l-3.761,6.254L-94.115-23.1h-3.459l5.45,9.05v5.028h3.258V-14.01Z" transform="translate(185.104 405.845)" fill="#2274a5" />
    </g>
</svg>
  