<svg xmlns="http://www.w3.org/2000/svg" width="85.547" height="8.435" viewBox="0 0 85.547 8.435">
    <g id="Grupo_6" data-name="Grupo 6" transform="translate(-193.291 -765.147)">
        <path id="Caminho_1" data-name="Caminho 1" d="M-48.523-15.061c2.33,0,3.46-1.165,3.46-2.528,0-2.994-4.742-1.957-4.742-3.46,0-.513.431-.932,1.549-.932a4.606,4.606,0,0,1,2.26.641l.583-1.433a5.47,5.47,0,0,0-2.831-.722c-2.318,0-3.437,1.153-3.437,2.54,0,3.029,4.742,1.981,4.742,3.507,0,.5-.454.874-1.573.874a4.8,4.8,0,0,1-2.691-.85L-51.843-16A5.813,5.813,0,0,0-48.523-15.061Zm9.541-1.654V-18.6h3.786v-1.468h-3.786v-1.771h4.287v-1.515h-6.163V-15.2h6.314v-1.515Zm12.734,1.654a4.19,4.19,0,0,0,3.367-1.456l-1.212-1.118a2.6,2.6,0,0,1-2.05.967,2.5,2.5,0,0,1-2.61-2.61,2.5,2.5,0,0,1,2.61-2.61,2.624,2.624,0,0,1,2.05.955l1.212-1.118A4.21,4.21,0,0,0-26.236-23.5a4.19,4.19,0,0,0-4.427,4.217A4.187,4.187,0,0,0-26.248-15.061Zm14.772-.14L-13.3-17.822A2.651,2.651,0,0,0-11.627-20.4c0-1.829-1.363-2.959-3.542-2.959H-18.7V-15.2h1.887v-2.272h1.736L-13.5-15.2Zm-2.062-5.2c0,.885-.583,1.421-1.736,1.421h-1.538v-2.843h1.538C-14.12-21.818-13.537-21.294-13.537-20.4Zm8.19,3.681V-18.6h3.786v-1.468H-5.347v-1.771H-1.06v-1.515H-7.223V-15.2H-.909v-1.515ZM5.2-15.2H7.083v-6.617h2.61v-1.538H2.587v1.538H5.2Z" transform="translate(269.145 788.643)" fill="#e9f1f7" />
        <path id="Caminho_3" data-name="Caminho 3" d="M-110.664-14.945l-.023-8.155h-1.549l-3.006,5.068-3.052-5.068h-1.561v8.155h1.771v-4.788l2.388,3.926h.85l2.4-4.031.012,4.893Zm11.93-8.155h-1.852l-2.179,3.623-2.179-3.623h-2l3.157,5.243v2.913h1.887v-2.889Z" transform="translate(313.147 788.387)" fill="#2274a5" />
    </g>
</svg>
  